<?xml version="1.0" encoding="utf-8"?>
<!-- Generator: Adobe Illustrator 27.6.1, SVG Export Plug-In . SVG Version: 6.00 Build 0)  -->
<svg version="1.1" id="Layer_1" xmlns="http://www.w3.org/2000/svg" xmlns:xlink="http://www.w3.org/1999/xlink" x="0px" y="0px"
	 viewBox="0 0 837.7 89.7" style="enable-background:new 0 0 837.7 89.7;" xml:space="preserve">
<g>
	<path d="M23.8,52.9l10.3-14.5c3-4.2,6.5-6.1,10.6-6.1c2.8,0,5.9,0.9,9.1,2.5l5.9-6.2c-2.9-1-5.6-1.5-8.1-1.5
		c-7.7,0-13.8,4.3-18.3,10.6l-19.9,28V0L0,4.2C3.1,5,6.1,6.9,6.1,10.7v64.2c0,4.6-1.2,12.2-5.7,14.7h18.1
		c-4.4-2.5-5.2-10.1-5.2-14.7v-7.2l6.3-8.8l18.4,20.9c1.8,1.7,2.7,3.6,2.7,5.5c0,1.4-0.4,2.9-1.4,4.4H62c-6.9-1.9-9.4-4.3-14.9-9.5
		L23.8,52.9z"/>
	<path d="M134,43c-0.7-1.2-0.9-2.5-0.9-3.6c0-6.8,9.7-10.9,19.4-10.9c2.8,0,5.8,0.4,8.4,0.9c5.9,1.3,8,5.1,8,10.7
		c0,0.7,0,1.4-0.1,2.1l7.1-2.2c-0.8-2.8-2.3-5.2-4.3-7.1c-3.9-3.5-11.4-5.6-18.9-5.6c-12.3,0-22,5.2-22.3,16.1
		c0,17.9,36.8,18.8,42.9,30.5c0.7,1.2,0.9,2.4,0.9,3.6c0,2.7-1.7,5-4.1,6.8c-4.2,3.1-9.4,4.4-14.7,4.4c-6.9,0-14.1-2.3-19.5-6
		C125.8,76,123.3,68,122.7,58.5V27.3l-13.3,4.2c3.1,0.8,6,2.7,6,6.5v22.4c-0.1,18.3-9.7,27.8-18.9,27.8c-8.5,0-16.8-8.1-17.2-24.7
		V27.3l-13.4,4.2c3.1,0.8,6.1,2.7,6.1,6.5v25.5C72.3,80,83.8,89.6,95,89.6c10.1,0,20-7.8,21.3-25.7c1.7,8.8,6.3,15.7,18.4,21.3
		c6.3,3,13.3,4.4,19.8,4.4c13,0,22.4-6.1,22.4-16.3c0-1.3-0.2-2.6-0.5-4C172.7,52.6,139.6,53.8,134,43z"/>
	<path d="M235.5,74.9V53.1h-0.1c-0.5-16.2-11.9-25.7-23-25.7c-8.8,0-17.6,6-20.4,19.5V0l-13.3,4.2c3.1,0.8,6.1,2.7,6.1,6.5v64.2
		c0,4.6-1.2,12.2-5.7,14.7h18.1c-4.4-2.5-5.2-10.1-5.2-14.7V56.7c0-18.5,9.6-28,18.9-28c8.8,0,17.3,8.5,17.3,25.9h0.1l-0.1,0.1v20.3
		c0,4.6-1.2,12.2-5.7,14.7h18.1C236.2,87.1,235.5,79.5,235.5,74.9z"/>
	<path d="M294.5,74.9V46.8c0-13.5-10.5-19.4-21-19.4c-10.5,0-20.9,5.9-20.9,16h12c5.9,0,10.7,2,14.3,5h-10.6
		c-10.6,0-21.3,3.1-25,14.4c-0.6,1.8-0.9,3.9-0.9,6c0,1.1,0.1,2.3,0.2,3.4c1.6,10.3,10.9,17.4,21.6,17.4c11.1,0,20-6.8,22.8-15.8
		v15.7h12.5C295.2,87.2,294.5,79.6,294.5,74.9z M286.7,72.2c0,0-0.3,1.7-1.3,3.8v0.1c-2.4,5.3-7.4,9.1-14.6,9.1
		c-10.6,0-17.9-6.3-20.3-14.3c-0.6-2.1-0.9-4.2-0.9-6c0-9.8,8.1-15.5,18.7-15.5H280c4.7,4.6,7.1,11.3,7.2,17.6
		C287.2,68.8,287,70.5,286.7,72.2z M287.2,59.4c-2.8-9.2-10.7-17.1-22.7-17.1h-3.3c0.4-9,6.5-13.9,12.6-13.9
		c6.6,0,13.3,5.8,13.3,18.4V59.4z"/>
	<path d="M317.2,74.9V0l-13.3,4.2C307,5,310,6.9,310,10.7v64.2c0,4.6-1.2,12.2-5.7,14.7h18.1C318,87.1,317.2,79.5,317.2,74.9z"/>
	<path d="M424.5,74.9v-21c-0.1-16.7-11.7-26.6-23-26.6c-8.9,0-17.6,6-20.4,19.5V27.3l-13.3,4.2c3.1,0.8,6,2.7,6,6.5v2.7h0.1v34.2
		c0,4.6-1.2,12.2-5.7,14.7h18.1c-4.4-2.5-5.2-10.1-5.2-14.7V56.7c0-18.5,9.6-28,18.9-28c8.8,0,17.3,8.5,17.3,25.9h0.1l-0.1,0.1v20.3
		c0,4.6-1.2,12.2-5.7,14.7h18.2C425.3,87.1,424.5,79.5,424.5,74.9z"/>
	<path d="M483.6,74.9V46.8c0-13.5-10.5-19.4-21-19.4s-20.9,5.9-20.9,16h12c5.9,0,10.7,2,14.3,5h-10.6c-10.6,0-21.3,3.1-25,14.4
		c-0.6,1.8-0.9,3.9-0.9,6c0,1.1,0.1,2.3,0.2,3.4c1.6,10.3,10.9,17.4,21.6,17.4c11.1,0,20-6.8,22.8-15.8v15.7h12.5
		C484.3,87.2,483.6,79.6,483.6,74.9z M475.8,72.2c0,0-0.3,1.7-1.3,3.8v0.1c-2.4,5.3-7.4,9.1-14.6,9.1c-10.6,0-17.9-6.3-20.3-14.3
		c-0.6-2.1-0.9-4.2-0.9-6c0-9.8,8.1-15.5,18.7-15.5h11.7c4.7,4.6,7.1,11.3,7.2,17.6C476.3,68.8,476.1,70.5,475.8,72.2z M476.3,59.4
		c-2.8-9.2-10.7-17.1-22.7-17.1h-3.3c0.4-9,6.5-13.9,12.6-13.9c6.6,0,13.3,5.8,13.3,18.4V59.4z"/>
	<path d="M549.7,74.9v-21c-0.1-16.7-11.7-26.6-23-26.6c-8.9,0-17.6,6-20.4,19.5V27.3L493,31.5c3.1,0.8,6,2.7,6,6.5v2.7h0.1v34.2
		c0,4.6-1.2,12.2-5.7,14.7h18.1c-4.4-2.5-5.2-10.1-5.2-14.7V56.7c0-18.5,9.6-28,18.9-28c8.8,0,17.3,8.5,17.3,25.9h0.1l-0.1,0.1v20.3
		c0,4.6-1.2,12.2-5.7,14.7h18.2C550.5,87.1,549.7,79.5,549.7,74.9z"/>
	<path d="M615.2,74.9V0l-13.3,4.2c3.1,0.8,6,2.7,6,6.5v38.4c-3.3-14.3-14.1-21.8-24.8-21.8c-12.3,0-24.5,9.8-25.3,30.2v1.5
		c0,18.8,12.5,30.5,24.5,30.5c3.7,0,7.4-1.1,10.6-3.5c7.3-5.3,10.9-16.2,10.9-27.2c0-11.1-3.7-22.4-10.8-28.2
		c7.9,3.6,14.5,12.7,14.9,26.3v32.6h12.5C615.9,87.1,615.2,79.5,615.2,74.9z M602.5,58.9c0,10.6-3.3,21.2-10.6,26.2
		c-2.4,1.7-5.1,2.5-7.8,2.5c-9.4,0-18.9-9.9-18.9-27.9l0.1-1.9c0.7-19.9,10.1-28.9,20-28.9h0.6C596.3,29.4,602.5,44.2,602.5,58.9z"
		/>
	<path d="M700.7,27.3h-8c1.2,1.8,1.9,3.6,1.9,5.3c0,0.7-0.1,1.2-0.2,1.8c-6,13.3-15.5,14.3-24.3,17.6l-5.3-14.6
		c-0.2-0.7-0.4-1.4-0.4-2.2c0-3.7,2.3-7.9,2.3-7.9h-16.4c2.7,2.3,5.8,9.1,7.3,13.1l5.5,15c-6.6,4.4-8.4,9.5-12.7,21.3L636,37.5
		c-0.2-0.7-0.4-1.4-0.4-2.2c0-3.7,2.3-7.9,2.3-7.9h-16.4c2.7,2.3,5.8,9.1,7.3,13.1l17.8,49.1l7.4-20c2.4-6.6,5.7-10.5,9.4-13
		l11.5,31.6l0.5,1.4c13.4-36.5,6-16.5,19.9-54.6C696.3,31.9,698.5,29.5,700.7,27.3z M679,76.7l-8.6-23.7c7.5-2.7,15.7-3.8,21.8-12.8
		L679,76.7z"/>
	<path d="M743.6,74.9V46.8c0-13.5-10.5-19.4-21-19.4s-20.9,5.9-20.9,16h12c5.9,0,10.7,2,14.3,5h-10.6c-10.6,0-21.3,3.1-25,14.4
		c-0.6,1.8-0.9,3.9-0.9,6c0,1.1,0.1,2.3,0.2,3.4c1.6,10.3,10.9,17.4,21.6,17.4c11.1,0,20-6.8,22.8-15.8v15.7h12.5
		C744.4,87.2,743.6,79.6,743.6,74.9z M735.8,72.2c0,0-0.3,1.7-1.3,3.8v0.1c-2.4,5.3-7.4,9.1-14.6,9.1c-10.6,0-17.9-6.3-20.3-14.3
		c-0.6-2.1-0.9-4.2-0.9-6c0-9.8,8.1-15.5,18.7-15.5h11.7c4.7,4.6,7.1,11.3,7.2,17.6C736.4,68.8,736.2,70.5,735.8,72.2z M736.4,59.4
		c-2.8-9.2-10.7-17.1-22.7-17.1h-3.3c0.4-9,6.5-13.9,12.6-13.9c6.6,0,13.3,5.8,13.3,18.4V59.4z"/>
	<path d="M809.8,74.9v-21c-0.1-16.7-11.7-26.6-23-26.6c-8.9,0-17.6,6-20.4,19.5V27.3L753,31.5c3.1,0.8,6,2.7,6,6.5v2.7h0.1v34.2
		c0,4.6-1.2,12.2-5.7,14.7h18.1c-4.4-2.5-5.2-10.1-5.2-14.7V56.7c0-18.5,9.6-28,18.9-28c8.8,0,17.3,8.5,17.3,25.9h0.1l-0.1,0.1v20.3
		c0,4.6-1.2,12.2-5.7,14.7H815C810.5,87.1,809.8,79.5,809.8,74.9z"/>
	<path d="M819.5,89.6h18.2c-4.4-2.5-5.2-10.1-5.2-14.7V27.3l-13.4,4.2c3.2,0.8,6.1,2.7,6.1,6.5v36.9C825.2,79.5,824,87.1,819.5,89.6
		z"/>
	<path d="M828.9,18.3c2,0,3.6-1.6,3.6-3.7c0-2-1.6-3.6-3.6-3.6c-2,0-3.7,1.6-3.7,3.6C825.2,16.7,826.9,18.3,828.9,18.3z"/>
</g>
</svg>
