<?xml version="1.0" encoding="utf-8"?>
<!-- Generator: Adobe Illustrator 27.6.1, SVG Export Plug-In . SVG Version: 6.00 Build 0)  -->
<svg version="1.1" id="Layer_1" xmlns="http://www.w3.org/2000/svg" xmlns:xlink="http://www.w3.org/1999/xlink" x="0px" y="0px"
	 viewBox="0 0 1080 115.1" style="enable-background:new 0 0 1080 115.1;" xml:space="preserve">
<text transform="matrix(1 0 0 1 -1476.2159 -635.7318)" style="font-family:'DarkBookDemoRegular'; font-size:141.9576px;">kushal nandwani</text>
<g>
	<path d="M20.6,6.2l1.1,10.1c1.5,0,2.6-2.3,3.4-6.8h1.1l1.1,4.5l-3.4,18l12.4-9h1.1L24,35.5v1.1l25.9-19.2l1.1,1.1
		C61.2,10.4,67.9,6.2,71.4,6.2h1.1l1.1,4.5l-9,9h1.1c1.5-3,3.8-4.5,6.8-4.5l1.1,1.1v-1.1l-1.1-1.1l1.1-1.1H77l1.1,3.4
		C72.5,19,59.3,28.8,38.7,45.7c5.1,11.1,14.1,26.1,27.1,45.1V93l-1.1,7.9l-1.1-1.1h-1.1l-1.1,4.5h-4.5v-2.3h-1.1v2.3h-2.3
		c0-2.7-8.3-16.6-24.8-41.7l-2.3-6.8L20.6,57c-1,18.1-3.3,29.4-7.1,33.8v1.1L2.3,90.8v-3.4l1.1-7.9c-2.3,0-3.4-2.3-3.4-6.8
		c1.2-7.5,2.5-11.3,3.7-11.3l-1.1-1.1c2.3-20.7,4.5-33.1,6.8-37.2l-1.1-3.4l3.4-9V9.6l-1.1-1.1V7.4h2.3v7.9h1.1l1.1-3.4l-1.1-1.1
		V9.6C14.6,7.4,16.9,6.2,20.6,6.2z M11.6,18.6l-1.1,6.8v4.5h1.1l1.1-10.1v-1.1H11.6z M44.3,17.5h1.1l-6.8,5.6h-1.1L44.3,17.5z
		 M39.8,86.3h1.1l3.4,3.4h-1.1L39.8,86.3z M44.3,89.7c1.9,0,3.8,3.8,5.6,11.3v1.1h-1.1L44.3,89.7z M49.9,13h1.1l-4.5,4.5h-1.1
		L49.9,13z M64.6,4l1.1,1.1v1.1l-1.1,1.1l-1.1-1.1h-1.1L52.2,13h-1.1C51.1,11,55.6,8,64.6,4z M59,22l-4.5,3.4l-1.1,1.1v1.1h1.1
		l4.5-3.4l1.1-1.1V22H59z"/>
	<path d="M91.2,7.7l2.3,3.4l-1.1,5.6l1.1,1.1h1.1l1.1-5.6H98l1.1,3.4c-6,21.7-9,38.6-9,50.7c0.8,8.3,2.3,12.4,4.5,12.4l25.9-29.3
		l1.1-5.6V12.2l2.3-2.3c1.5,0,2.3,1.5,2.3,4.5h1.1c0-3,1.9-4.5,5.6-4.5l2.3,4.5l-1.1,5.6c1.5,0,2.3-1.9,2.3-5.6h2.3l1.1,1.1h1.1
		l-5.6,81.2l-1.1,4.5c-3,0-4.5,1.5-4.5,4.5h-4.5l1.1-11.3h-2.3v6.8l-3.4,3.4v-1.1l1.1-11.3c-2.3,0-3.4-1.5-3.4-4.5h-1.1l-19.2,9
		l-9-2.3v1.1c-7.8,0-13-11.3-15.8-33.8c3-33.8,6-50.7,9-50.7V9.9h1.1v4.5h-2.3v2.3l1.1,1.1V19h-1.1l1.1,3.4L78.8,28H80l1.1-1.1
		l-3.4,20.3v4.5h1.1C81.2,22.3,85.4,7.7,91.2,7.7z M77.7,52.8l-1.1,1.1v9h1.1l1.1-10.1H77.7z M80,79.8v2.3l1.1,3.4h1.1v-2.3
		l-1.1-3.4H80z M87.9,85.5v1.1c0,2.6,3.4,4.9,10.1,6.8h2.3v-1.1C95.9,92.2,91.8,89.9,87.9,85.5z M112.7,61.8l-7.9,9h1.1l7.9-9H112.7
		z"/>
	<path d="M177.7,5.9c2,1.5,8.3,2.3,19,2.3l-0.1,1.1h-7.9l-0.1,1.1c9.4,0,15.3,2.3,17.6,6.8l-0.1,2.3h-5.6l-0.1,1.1l7.8,1.1l-0.1,1.1
		h-6.8l-0.1,1.1c2.3,0,3.3,0.8,3.2,2.3c-13.4,0-25.4,4.9-35.9,14.7l-0.1,1.1c14.5,3.9,26.1,12.5,34.5,25.9l-0.1,1.1
		c-2.7,9.7-10.4,18.7-23,27.1l-6.9,1.1l-0.1,1.1h2.3c-0.1,2-7,4.3-20.7,6.8l0.1-2.3h5.6l0.1-1.1c-4.8,0-9.2-2.6-13.1-7.9
		c-3.4-1.7-5-5-5-9.9c0-0.4,0-0.9,0.1-1.4l3.5-2.3l3.2,2.3h2.3c21.2-3.3,32.2-10.1,32.8-20.3c-8.9-4.5-14.8-6.8-17.6-6.8l-0.1,1.1
		l-11.1-4.5l1.1,1.1l-0.1,2.3c-9.4-6.9-13.9-12.2-13.7-15.8l8.8-15.8l5.9-4.5l-0.1,2.3L177.7,5.9z M161.9,99.5l-0.1,1.1h4.5l5.7-1.1
		v-1.1h-1.1L161.9,99.5z M162.3,36.3l-0.1,1.1l19.9-12.4l9.2-2.3l0.1-2.3h-2.3C177.2,25,168.3,30.2,162.3,36.3z M168.5,82.6h1.1
		l2.4-2.3h-1.1L168.5,82.6z M174.7,91.6v1.1h1.1l4.7-3.4L174.7,91.6z M188.8,82.6l-4.8,5.6h1.1l4.8-5.6H188.8z"/>
	<path d="M221.7,6.9h1.1v3.4h1.1V8h4.5c1.5,0,2.3,2.3,2.3,6.8l3.4,1.1c0-2.3,0.8-3.4,2.3-3.4l1.1,1.1v1.1l-5.6,30.4l16.9-1.1H260
		l1.1-5.6l-1.1-1.1h2.3l-1.1-7.9v-1.1h2.3l-1.1-1.1v-2.3h2.3v-2.3h-2.3v-1.1h2.3l-1.1-1.1v-7.9l1.1,1.1h1.1V9.2L264.5,8V6.9h3.4
		l-5.6,38.3c1.5,0,3.8-12.4,6.8-37.2l4.5-1.1c0.8,6,1.9,9,3.4,9h1.1c0-2.3,0.8-3.4,2.3-3.4h1.1c-3.8,26-9.4,56.4-16.9,91.3h-1.1
		l-1.1-1.1l1.1-1.1v-9h-1.1l-3.4,11.3h-3.4c-1.5,0-2.3-2.3-2.3-6.8h-1.1v4.5H251c-1.5,0-2.3-1.1-2.3-3.4c0-5.4,2.3-18.2,6.8-38.3
		h-1.1L239.7,61l-10.1-1.1c-2.3,18-4.5,30.1-6.8,36.1h-3.4c-1.5,0-2.3-3-2.3-9h-1.1l-1.1,7.9l-2.3-2.3v-3.4l1.1-1.1v-1.1l-1.1-1.1
		h-1.1l-1.1,1.1h-1.1l-1.1-4.5c3-25.4,6.4-43.8,10.1-55.2h1.1l-1.1-1.1v-3.4l3.4-12.4h-1.1L221.7,6.9z M209.3,88.1h1.1v5.6h-1.1
		V88.1z M216.1,49.7v4.5h1.1v-4.5H216.1z M218.3,38.5l-1.1,5.6v1.1h1.1l1.1-4.5v-2.3H218.3z M219.4,32.8v4.5h1.1v-4.5H219.4z
		 M221.7,20.4l-1.1,9v2.3h1.1l1.1-9v-2.3H221.7z M222.8,11.4v7.9h1.1v-7.9H222.8z M256.6,70v4.5h1.1V70H256.6z M258.9,61l-1.1,6.8
		v1.1h1.1l1.1-5.6V61H258.9z M264.5,82.4l-1.1,5.6v3.4h1.1l1.1-7.9v-1.1H264.5z"/>
	<path d="M326.3,2.4c0.5,2.3,3.5,3.4,9,3.4l9,39.5h7.9v1.1l-6.8,1.1v1.1c2.3,0,3.4,0.8,3.4,2.3h9V52c0,1.7-3.8,3.2-11.3,4.5l2.3,6.8
		l-1.1,3.4l1.1,6.8l-1.1,1.1h1.1l-1.1,1.1l1.1,13.5V96l-1.1-1.1h-1.1l3.4,16.9h-2.3c0-2.3-0.8-3.4-2.3-3.4v1.1l1.1,3.4h-1.1
		l-1.1-1.1h-1.1c0,2.3-0.8,3.4-2.3,3.4L335.3,96h-1.1v4.5H333l-2.3-13.5l3.4,2.3v-1.1c-0.6-6.8-1.7-10.1-3.4-10.1l1.1-1.1v-3.4h-2.3
		v3.4h-1.1v-4.5l1.1-1.1h-1.1l-1.1,1.1v-4.5h1.1l1.1,1.1h1.1l-1.1-1.1V61l-24.8,5.6v2.3l7.9-2.3l4.5,1.1l5.6-1.1v2.3
		c-15.8,2.8-23.7,6.6-23.7,11.3c-2,8.3-4.2,13.5-6.8,15.8v2.3h-3.4l-1.1-1.1h-1.1v1.1l-3.4-2.3l2.3-6.8h-1.1c-2.3,0-3.4,3-3.4,9
		l-2.3-2.3l1.1-6.8l-3.4-3.4l19.2-46.2h1.1c0,2.3,0.8,3.4,2.3,3.4l1.1-5.6l-1.1,1.1h-1.1V34l1.1-5.6l1.1,1.1h1.1l-1.1-1.1v-1.1
		l2.3-4.5h1.1l1.1,1.1h1.1v-1.1c0-1.5-1.1-2.3-3.4-2.3l5.6-15.8h4.5l-1.1,1.1v1.1C316.8,3.9,321.7,2.4,326.3,2.4z M293.6,50.9
		l-1.1,4.5h1.1l2.3-4.5H293.6z M297,45.2l-1.1,1.1v2.3h1.1l1.1-3.4H297z M303.7,49.7l-1.1,4.5h1.1l1.1-1.1v-3.4H303.7z M309.4,35.1
		l-2.3,7.9l-1.1-1.1h-1.1l1.1,4.5h1.1l3.4-10.1v-1.1H309.4z M319.5,28.3l-9,23.7h2.3c7.5,0,11.6-2.3,12.4-6.8l-4.5-16.9H319.5z
		 M312.7,54.2v1.1h2.3c6.8-0.8,10.1-1.9,10.1-3.4H324L312.7,54.2z M328.5,79h2.3v6.8h-1.1L328.5,79z M333,90.3v2.3l3.4-1.1v-2.3
		L333,90.3z M344.3,86.9v2.3l1.1,4.5h1.1v-2.3l-1.1-4.5H344.3z"/>
	<path d="M378.3,6.9c1.5,0,2.3,2.3,2.3,6.8h2.3l3.4-2.3l1.1,1.1l-5.6,63.1c4.8-2.3,17.6-4.9,38.3-7.9h1.1v1.1
		c-26.3,4.3-39.5,7.7-39.5,10.1l12.4-3.4v1.1l21.4-4.5v1.1l1.1-1.1h1.1l1.1,1.1l5.6-1.1h4.5l7.9,1.1v1.1c0,2.3-5.6,4.1-16.9,5.6v1.1
		l1.1-1.1h1.1l7.9,1.1l1.1-1.1v3.4l-37.2,9l-23.7,9h-3.4l-4.5-5.6h-1.1v-1.1c0-1.9,1.5-3,4.5-3.4v-3.4l-3.4-4.5l4.5-50.7h1.1v4.5
		l-1.1,7.9h2.3l-2.3,14.7l1.1,1.1l-1.1,4.5v5.6h1.1l4.5-59.7c1.5,0,2.3-1.1,2.3-3.4l1.1-1.1H378.3z"/>
	<path d="M492.1,8.1l7.9,6.8c0-2.3,0.8-3.4,2.3-3.4h1.1l15.8,40.6v2.3H518l-2.3-6.8h-1.1v2.3l7.9,19.2h1.1c3-19.5,7.3-39.9,13-61.2
		L540,10l3.4-1.1l6.8,3.4v1.1c-2.3,0-3.4,1.5-3.4,4.5h1.1L549,19h1.1l1.1-5.6h2.3v1.1l-1.1,1.1l1.1,1.1v1.1
		c-5.7,17.4-10.7,42.3-15.3,74.7H536l2.3-18c-1.5,0-3.8,7.1-6.8,21.4c-2.8,2.3-5.4,3.4-7.9,3.4v2.3h-1.1c0-1.5-1.5-2.3-4.5-2.3v-7.9
		c0-3.4-7.5-22.2-22.5-56.4h-1.1c-3,13.4-5.6,31.4-7.9,54.1l-1.1-1.1c-4.5,1.3-6.8,3.2-6.8,5.6h-2.3c-1.5-2.8-2.3-7.7-2.3-14.7h-1.1
		v10.1h-2.3l-1.1-5.6c0-20.4,4.5-45.2,13.5-74.4L492.1,8.1z M476.3,36.3v1.1l1.1,1.1l-1.1,1.1v2.3h1.1l1.1-4.5l-1.1-1.1H476.3z
		 M519.1,54.3c1.9,0,3.4,3,4.5,9v1.1h-1.1L519.1,54.3z"/>
	<path d="M599.1,2.4c0.5,2.3,3.5,3.4,9,3.4l9,39.5h7.9v1.1l-6.8,1.1v1.1c2.3,0,3.4,0.8,3.4,2.3h9V52c0,1.7-3.8,3.2-11.3,4.5l2.3,6.8
		l-1.1,3.4l1.1,6.8l-1.1,1.1h1.1l-1.1,1.1l1.1,13.5V96l-1.1-1.1h-1.1l3.4,16.9h-2.3c0-2.3-0.8-3.4-2.3-3.4v1.1l1.1,3.4h-1.1
		l-1.1-1.1H616c0,2.3-0.8,3.4-2.3,3.4L608.1,96H607v4.5h-1.1l-2.3-13.5l3.4,2.3v-1.1c-0.6-6.8-1.7-10.1-3.4-10.1l1.1-1.1v-3.4h-2.3
		v3.4h-1.1v-4.5l1.1-1.1h-1.1l-1.1,1.1v-4.5h1.1l1.1,1.1h1.1l-1.1-1.1V61l-24.8,5.6v2.3l7.9-2.3l4.5,1.1l5.6-1.1v2.3
		c-15.8,2.8-23.7,6.6-23.7,11.3c-2,8.3-4.2,13.5-6.8,15.8v2.3h-3.4l-1.1-1.1h-1.1v1.1l-3.4-2.3l2.3-6.8h-1.1c-2.3,0-3.4,3-3.4,9
		l-2.3-2.3l1.1-6.8l-3.4-3.4l19.2-46.2h1.1c0,2.3,0.8,3.4,2.3,3.4l1.1-5.6l-1.1,1.1h-1.1V34l1.1-5.6l1.1,1.1h1.1l-1.1-1.1v-1.1
		l2.3-4.5h1.1l1.1,1.1h1.1v-1.1c0-1.5-1.1-2.3-3.4-2.3L581,4.6h4.5l-1.1,1.1v1.1C589.6,3.9,594.5,2.4,599.1,2.4z M566.4,50.9
		l-1.1,4.5h1.1l2.3-4.5H566.4z M569.8,45.2l-1.1,1.1v2.3h1.1l1.1-3.4H569.8z M576.5,49.7l-1.1,4.5h1.1l1.1-1.1v-3.4H576.5z
		 M582.2,35.1l-2.3,7.9l-1.1-1.1h-1.1l1.1,4.5h1.1l3.4-10.1v-1.1H582.2z M592.3,28.3l-9,23.7h2.3c7.5,0,11.6-2.3,12.4-6.8l-4.5-16.9
		H592.3z M585.6,54.2v1.1h2.3c6.8-0.8,10.1-1.9,10.1-3.4h-1.1L585.6,54.2z M601.3,79h2.3v6.8h-1.1L601.3,79z M605.8,90.3v2.3
		l3.4-1.1v-2.3L605.8,90.3z M617.1,86.9v2.3l1.1,4.5h1.1v-2.3l-1.1-4.5H617.1z"/>
	<path d="M656.7,8.1l7.9,6.8c0-2.3,0.8-3.4,2.3-3.4h1.1l15.8,40.6v2.3h-1.1l-2.3-6.8h-1.1v2.3l7.9,19.2h1.1c3-19.5,7.3-39.9,13-61.2
		l3.4,2.3l3.4-1.1l6.8,3.4v1.1c-2.3,0-3.4,1.5-3.4,4.5h1.1l1.1,1.1h1.1l1.1-5.6h2.3v1.1l-1.1,1.1l1.1,1.1v1.1
		c-5.7,17.4-10.7,42.3-15.3,74.7h-2.3l2.3-18c-1.5,0-3.8,7.1-6.8,21.4c-2.8,2.3-5.4,3.4-7.9,3.4v2.3h-1.1c0-1.5-1.5-2.3-4.5-2.3
		v-7.9c0-3.4-7.5-22.2-22.5-56.4H659c-3,13.4-5.6,31.4-7.9,54.1l-1.1-1.1c-4.5,1.3-6.8,3.2-6.8,5.6h-2.3c-1.5-2.8-2.3-7.7-2.3-14.7
		h-1.1v10.1h-2.3l-1.1-5.6c0-20.4,4.5-45.2,13.5-74.4L656.7,8.1z M640.9,36.3v1.1l1.1,1.1l-1.1,1.1v2.3h1.1l1.1-4.5l-1.1-1.1H640.9z
		 M683.8,54.3c1.9,0,3.4,3,4.5,9v1.1h-1.1L683.8,54.3z"/>
	<path d="M735.5,7.2h4.5l3.4,2.3l7.9-1.1c13,0,25.1,7.5,36.1,22.5l5.6,11.3l-1.1,1.1l1.1,5.6v5.6c0,19.3-15.8,34-47.3,44l-11.3,1.1
		c0-1.9-1.5-3-4.5-3.4v4.5h-3.4V94l-1.1-1.1l1.1-1.1v-1.1c-4.5-3.1-6.8-5.7-6.8-7.9c2.3-34,6-58.8,11.3-74.4h1.1l1.1,1.1L735.5,7.2z
		 M724.2,94h1.1v1.1l-2.3,2.3H722v-1.1L724.2,94z M731,18.5l-5.6,32.7v1.1h1.1l5.6-31.6v-2.3H731z M736.6,87.3l1.1,3.4h2.3l2.3-2.3
		v-1.1h-1.1l-3.4,1.1L736.6,87.3z M749,26.4c0,1.5-1.5,2.3-4.5,2.3c-3,13.7-5.3,29.5-6.8,47.3c4.4,0,15.7-3.8,33.8-11.3v-1.1h-2.3
		c6-6.1,9-12.5,9-19.2V41c0-8.3-5.6-13.2-16.9-14.7H749z M745.6,86.1v1.1h4.5l5.6-2.3v-1.1h-1.1L745.6,86.1z M771.6,26.4v1.1
		l4.5,2.3v-1.1l-3.4-2.3H771.6z M771.6,79.4c1.8-0.3,4.4-2.5,7.9-6.8v-1.1L771.6,79.4z M778.3,59.1l-2.3,4.5h1.1l2.3-4.5H778.3z
		 M781.7,42.2l-1.1,13.5h2.3v-3.4l1.1-4.5l-1.1-5.6H781.7z M789.6,51.2l-5.6,18v1.1h1.1l5.6-16.9v-2.3H789.6z"/>
	<path d="M802.5,5.1h3.4l1.1,5.6c2.3,0,3.4-1.1,3.4-3.4h1.1l2.3,2.3l-1.1,6.8h1.1l-1.1,1.1v1.1l1.1,1.1v1.1h-1.1l1.1,1.1v1.1
		l-1.1,37.2v1.1h1.1l3.4-11.3h2.3l-7.9,21.4h2.3l13.5-38.3h-2.3l-4.5,14.7h-2.3v-1.1l7.9-18h1.1V31l9-2.3c3,1.1,4.5,2.2,4.5,3.4
		L842,31h3.4l4.5,27.1h1.1c0-3.4,5.9-22.7,17.8-58.1h1.1l1.1,3.4h1.1V1.1h1.1c5.6,0,8.6,1.1,9,3.4v2.3l-2.3,3.4v1.1h2.3l1.1-7.9h2.3
		l2.3,2.3v1.1l-25.7,88.5l-3.4,1.1v-2.3l-1.1,1.1h-1.1l-1.1-1.1c0,3-1.1,4.5-3.4,4.5c-6-0.5-9-1.7-9-3.4h1.1
		c-0.8-3.8-2.3-6.4-4.5-7.9l-4.5-24.8c-1.3,0-5.8,10.6-13.5,31.6l-5.6,5.6h-1.1l-1.1-4.5c11.5-19,17.5-33.7,18-44
		c-2,2-6.9,13.3-14.7,33.8c-0.9,0-2.4,4.5-4.5,13.5h-10.1l-1.1-4.5l-1.1,1.1h-1.1c0-4.1-1.1-7.1-3.4-9v-4.5l4.5,3.4L798,66l1.1-1.1
		l-1.1-1.1l1.1-1.1H798l1.1-1.1V45.7l1.1-5.6h-1.1l1.1-1.1V9.6l-1.1-1.1V7.4L802.5,5.1z M868.8,5.6c-11.1,34.5-16.6,53.9-16.6,58.1
		v1.1h1.1L871,5.6H868.8z M860,76.1l-2.3,10.1v2.3h1.1l2.3-11.3v-1.1H860z M866.8,49.1l-2.3,10.1v1.1h1.1l2.3-10.1v-1.1H866.8z"/>
	<path d="M928.4,2.4c0.5,2.3,3.5,3.4,9,3.4l9,39.5h7.9v1.1l-6.8,1.1v1.1c2.3,0,3.4,0.8,3.4,2.3h9V52c0,1.7-3.8,3.2-11.3,4.5l2.3,6.8
		l-1.1,3.4l1.1,6.8l-1.1,1.1h1.1l-1.1,1.1l1.1,13.5V96l-1.1-1.1h-1.1l3.4,16.9h-2.3c0-2.3-0.8-3.4-2.3-3.4v1.1l1.1,3.4h-1.1
		l-1.1-1.1h-1.1c0,2.3-0.8,3.4-2.3,3.4L937.4,96h-1.1v4.5h-1.1l-2.3-13.5l3.4,2.3v-1.1c-0.6-6.8-1.7-10.1-3.4-10.1l1.1-1.1v-3.4
		h-2.3v3.4h-1.1v-4.5l1.1-1.1h-1.1l-1.1,1.1v-4.5h1.1l1.1,1.1h1.1l-1.1-1.1V61L907,66.6v2.3l7.9-2.3l4.5,1.1l5.6-1.1v2.3
		c-15.8,2.8-23.7,6.6-23.7,11.3c-2,8.3-4.2,13.5-6.8,15.8v2.3h-3.4l-1.1-1.1h-1.1v1.1l-3.4-2.3l2.3-6.8h-1.1c-2.3,0-3.4,3-3.4,9
		l-2.3-2.3l1.1-6.8l-3.4-3.4L898,39.6h1.1c0,2.3,0.8,3.4,2.3,3.4l1.1-5.6l-1.1,1.1h-1.1V34l1.1-5.6l1.1,1.1h1.1l-1.1-1.1v-1.1
		l2.3-4.5h1.1l1.1,1.1h1.1v-1.1c0-1.5-1.1-2.3-3.4-2.3l5.6-15.8h4.5l-1.1,1.1v1.1C919,3.9,923.9,2.4,928.4,2.4z M895.7,50.9
		l-1.1,4.5h1.1l2.3-4.5H895.7z M899.1,45.2l-1.1,1.1v2.3h1.1l1.1-3.4H899.1z M905.9,49.7l-1.1,4.5h1.1l1.1-1.1v-3.4H905.9z
		 M911.5,35.1l-2.3,7.9l-1.1-1.1H907l1.1,4.5h1.1l3.4-10.1v-1.1H911.5z M921.6,28.3l-9,23.7h2.3c7.5,0,11.6-2.3,12.4-6.8l-4.5-16.9
		H921.6z M914.9,54.2v1.1h2.3c6.8-0.8,10.1-1.9,10.1-3.4h-1.1L914.9,54.2z M930.7,79h2.3v6.8h-1.1L930.7,79z M935.2,90.3v2.3
		l3.4-1.1v-2.3L935.2,90.3z M946.4,86.9v2.3l1.1,4.5h1.1v-2.3l-1.1-4.5H946.4z"/>
	<path d="M986,8.1l7.9,6.8c0-2.3,0.8-3.4,2.3-3.4h1.1l15.8,40.6v2.3h-1.1l-2.3-6.8h-1.1v2.3l7.9,19.2h1.1c3-19.5,7.3-39.9,13-61.2
		l3.4,2.3l3.4-1.1l6.8,3.4v1.1c-2.3,0-3.4,1.5-3.4,4.5h1.1l1.1,1.1h1.1l1.1-5.6h2.3v1.1l-1.1,1.1l1.1,1.1v1.1
		c-5.7,17.4-10.7,42.3-15.3,74.7h-2.3l2.3-18c-1.5,0-3.8,7.1-6.8,21.4c-2.8,2.3-5.4,3.4-7.9,3.4v2.3h-1.1c0-1.5-1.5-2.3-4.5-2.3
		v-7.9c0-3.4-7.5-22.2-22.5-56.4h-1.1c-3,13.4-5.6,31.4-7.9,54.1l-1.1-1.1c-4.5,1.3-6.8,3.2-6.8,5.6h-2.3c-1.5-2.8-2.3-7.7-2.3-14.7
		h-1.1v10.1h-2.3l-1.1-5.6c0-20.4,4.5-45.2,13.5-74.4L986,8.1z M970.2,36.3v1.1l1.1,1.1l-1.1,1.1v2.3h1.1l1.1-4.5l-1.1-1.1H970.2z
		 M1013.1,54.3c1.9,0,3.4,3,4.5,9v1.1h-1.1L1013.1,54.3z"/>
	<path d="M1073.7,8c-0.2,2.3,1.2,3.4,4.2,3.4l2.1,4.5l-1.2,1.1h1.1c-5.4,15.9-8.7,34.3-9.9,55.2l-0.4,6.8l1.1,1.1l-0.1,1.1l-1.2,1.1
		h1.1l-1.2,1.1l0.7,7.9l-0.1,2.3c-4,4.9-6.1,8.6-6.3,11.3h-4.5l-5.4-2.3l1.6-7.9l-4.3-4.5l2.1-16.9l1.1-20.3l2.5-3.4l0.3-4.5
		l-1.1-1.1l0.1-1.1h2.3l0.1-1.1l-1.1-1.1l4.6-21.4h-1.1l1.2-1.1l0.3-6.8l-1.1-1.1l0.1-1.1L1073.7,8z M1057.6,94.8l-0.3,5.6l2.3-2.3
		l0.3-3.4H1057.6z M1057.8,49.7l-0.3,6.8h1.1l0.3-6.8H1057.8z M1059.5,39.5l-0.4,6.8h1.1l0.4-6.8H1059.5z M1061.2,28.3l-0.4,7.9h1.1
		l0.4-7.9H1061.2z"/>
</g>
<rect x="-25.7" y="77.3" style="fill:none;" width="2.2" height="0"/>
</svg>
