<?xml version="1.0" encoding="utf-8"?>
<!-- Generator: Adobe Illustrator 27.6.1, SVG Export Plug-In . SVG Version: 6.00 Build 0)  -->
<svg version="1.1" id="Layer_1" xmlns="http://www.w3.org/2000/svg" xmlns:xlink="http://www.w3.org/1999/xlink" x="0px" y="0px"
	 viewBox="0 0 1080 165.4" style="enable-background:new 0 0 1080 165.4;" xml:space="preserve">
<g>
	<path d="M171.8,11.6c-8.5,4.2-16.6,9.1-24.6,14.3C131.7,36,116.4,46.4,101,56.5C90,63.7,79,70.3,67.2,76c-8.6,4.2-17.6,8-27,9.8
		c-1.6,0.3-4.4,3.4-4.6,5v0.3c0,0.8,0.5,1.3,1,1.8c1.8,2.3,3.6,4.2,5.4,6.5c13.7,16.4,30.1,29.1,49.5,38.1c7.2,3.4,14.5,6,22.3,7.3
		c2.4,0.3,4.9,0.7,7.3,0.7s4.9-0.3,7.3-0.8c4.7-1,8.6-3.4,11.6-7.2c1.8-2.4,3.3-4.9,4.4-7.5c0.5-0.8,0.8-1.6,1.1-2.4
		c0.7-1.3,1-1.8,1.5-1.8s1.1,0.5,2,1.5c1,1.1,1.5,2.1,1.5,3.3c0,0.8-0.2,1.6-0.7,2.6c-2.3,4.6-4.7,9-8.5,12.4
		c-5.2,4.4-11.2,5.9-17.9,5.9c-10.7-0.2-20.5-3.6-30.1-8c-9.1-4.2-17.7-9.3-25.9-15.3c-6.8-5-13.2-10.7-18.9-17.1
		c-4.7-5.2-9.1-10.4-13.5-15.8c-0.3-0.5-0.7-1-1.3-1c-0.8,0.2-1,0.8-1.3,1.5c-9.6,14.7-17.9,30.1-24.3,46.6
		c-0.2,0.7-0.5,1.5-0.8,2.1v0.5c0,0.3,0.2,0.5,0.7,0.7c1.8,0.7,2.3,2.4,3.3,3.7c0.2,0.2,0.2,0.5,0.2,0.7c0,0.3,0,0.7-0.3,1
		c-1.5,2-3.1,3.9-5.2,5.2c-0.7,0.3-1.1,0.7-1.6,0.7s-1-0.5-1.8-1.3c-1.8-1.8-2.4-3.7-2.4-5.7c0-1.3,0.2-2.6,0.7-3.9
		c5-14.7,11.4-28.7,19.4-42c2.6-4.4,5.5-9,8.3-13.4c0.3-0.5,0.8-1,0.8-1.6c0-0.2,0-0.3-0.2-0.5c-0.3-0.7-1-0.7-1.6-0.7h-2.3
		c-2.8,0-5.5-0.3-8.3-0.8c-7-1.3-11.4-5.5-14.3-11.7c-0.5-1-0.7-2-0.7-2.9c0-2.3,1.1-4.7,3.1-6C6,65.5,7.2,65,8.5,65
		c0.8,0,1.6,0.2,2.4,0.5c1.6,0.7,3.3,1.8,4.6,2.9c3.4,3.3,6.7,6.5,9.4,10.4c1.1,1.8,2.6,2.6,4.6,2.6c0.5,0,1,0,1.5-0.2
		c2.4-0.3,4.2-1.1,5.7-3.4C45.4,64.3,54.4,51,63.8,37.9c7.5-10.4,15.3-20.7,23.6-30.4c0.7-0.8,1.5-1.8,2.4-2.4
		c0.5-0.5,1-0.7,1.3-0.7c0.5,0,0.8,0.3,1.3,1c1.6,2.3,2.3,3.1,2.3,3.9s-0.5,1.6-1.6,3.6c-2.4,4.4-5.5,8.1-8,12.5
		c-0.3,0.7-0.7,1-1.1,1c-0.3,0-0.5-0.2-0.8-0.5c-0.5-0.7-1-0.8-1.3-0.8c-0.5,0-1,0.5-1.5,1.1c-3.1,4.1-6.2,8.3-9.3,12.4
		C62,51,53.4,63.7,44.9,76.4c-0.2,0.5-0.5,0.7-0.5,1.3V78c2.1-0.2,3.9-1,5.7-1.6c10.4-3.9,20.2-8.8,29.6-14.3
		c15.8-9.1,30.6-19.5,45.8-29.6c12.4-8.3,24.7-16.6,37.9-23.9c3.3-1.8,6.8-3.6,10.4-4.9c1.3-0.7,2.8-1.1,4.2-1.3
		c0.5-0.2,1-0.2,1.5-0.2c1.6,0,2.8,0.7,3.7,2.3c1.1,1.8,1.8,2.8,1.8,3.7s-0.7,2-2.1,3.7l-4.4,4.9c-0.5,0.5-1,0.7-1.3,0.7
		s-0.8-0.3-1.3-1c-1.3-1.5-2-2.3-2-3.3c0-0.8,0.5-1.6,1.6-3.3C174.2,10.3,172.9,10.9,171.8,11.6z M22.6,80.3
		c-1.3-1.6-2.8-3.3-4.2-4.9c-1.6-1.6-3.3-2.9-5.4-3.9c-0.8-0.3-1.5-0.5-2.1-0.5c-1.5,0-2.8,0.7-3.4,2.1c-0.5,0.8-0.7,1.6-0.7,2.4
		c0,1.5,0.8,2.8,2.4,3.6c3.3,1.8,7,2.4,10.7,2.6c0.7,0,1.1,0.2,1.6,0.2s1-0.2,1.5-0.3v-0.3C23.1,80.8,23,80.6,22.6,80.3z"/>
	<path d="M132.4,104.5c-7.2,5.7-14.2,11.2-22.1,15.8c-1.6,1-3.3,1.8-5,2.4c-0.5,0.2-0.8,0.2-1.3,0.2c-1.1,0-2.1-0.5-3.1-1.5
		c-1.8-1.8-2.8-3.6-2.8-5.5c0-1.3,0.5-2.8,1.1-4.2c2.3-5,5.4-9.6,8.6-14.2c5.2-7.3,10.9-14.2,17.1-20.7c1.1-1.1,1.8-1.8,2.4-1.8
		c0.7,0,1.3,0.7,2.4,2c0.8,0.8,1.5,1.8,1.8,2.9c0.2,0.3,0.2,0.8,0.2,1.1c0,0.8-0.5,1.5-1.5,1.5h-0.3c-1.3,0-1.8,0.3-2.6,1.1
		c-5.7,6.4-11.2,13-16.1,20c-2.8,3.9-5.2,7.8-7.2,12.4c1.3-0.2,2.1-0.8,2.9-1.3c8-4.7,15.3-10.6,22.6-16.4c7.5-6,14.8-12.5,22-19.2
		c0.2,0,0.2-0.2,0.2-0.2c1.5-1.3,2.6-2,3.6-2c1.3,0,2.3,1.1,3.3,3.4c0.2,0.3,0.2,0.5,0.2,0.8c0,0.5-0.2,0.8-0.5,1.3l-2.4,3.4
		c-3.9,5.2-7.5,10.7-9.8,16.9c-0.3,0.8-0.7,1.8-0.8,2.6c-0.2,0.7-0.3,1.1-0.3,1.5c0,0.8,0.3,1.1,1.1,1.1c0.3,0,0.8-0.2,1.5-0.3
		c1.6-0.5,3.3-1.1,4.9-2c6.7-3.1,13.4-6.2,19.2-10.9c0.7-0.7,1.1-0.8,1.5-0.8c0.5,0,0.8,0.3,1.6,1.1c1.5,1.5,2.1,2.3,2.1,3.1
		c0,0.7-0.8,1.3-2.4,2.6c-5.7,4.4-12,7.5-18.4,10.4c-2.3,1-4.4,1.8-6.7,2.3c-0.7,0.2-1.1,0.2-1.6,0.2c-1.8,0-3.3-0.8-4.7-2.1
		c-2.3-2.3-3.3-4.6-3.3-7.2c0-1.3,0.3-2.8,0.8-4.2c0.3-0.8,0.5-1.6,0.8-2.4c-0.2-0.2-0.3-0.2-0.5-0.3
		C138.1,99.8,135.1,102.3,132.4,104.5z"/>
	<path d="M181.9,92c-4.1,3.6-6.4,8.1-7.5,13.4l-0.2,0.2c-0.2,0.7-0.2,1.1-0.2,1.5c0,0.8,0.2,1.1,0.8,1.1c0.5,0,1-0.2,1.6-0.3
		c6.5-1.8,13-3.6,19.5-5.5c4.6-1.3,9-2.9,13.5-4.4c2.8-0.8,5.4-2,7.8-3.3c0.8-0.5,1.1-0.8,1.5-0.8c0.5,0,1,0.5,1.6,1.1
		c1.3,1.5,2,2.4,2,3.3c0,1-1.1,1.6-3.3,2.8c-4.9,2.4-10.1,4.1-15.3,5.5c-9.3,2.9-18.4,5.5-27.7,8c-2.8,0.8-2.8,0.8-2.8,3.7
		c0,7.5,0.7,15.1,0.7,22.6v3.7c-0.2,3.3-0.7,6.4-1.6,9.4c-2.4,7.2-8.8,11.4-15.5,11.4c-2.9,0-6-0.8-8.8-2.6c-9.8-6-16-15-16.9-26.5
		v-1.8c0-6.8,3.4-12.2,9.6-15.8c2.8-1.8,6-2.9,9.1-3.9c5.4-1.5,10.6-2.8,15.8-4.2c2.8-0.7,2.6-1,2.9-3.4c0.5-7,2.6-13.4,7.5-18.7
		c4.6-5,10.3-8.8,16.4-11.6c2.3-1.1,4.7-2.1,7.2-2.6c0.8-0.2,1.5-0.2,2.1-0.2c3.3,0,5.4,1.6,6.7,5.2c0.2,0.3,0.2,0.8,0.2,1.1
		c0,0.8-0.2,1.5-0.7,2.1c-1,1.5-2.3,2.9-3.7,4.1c-2.1,2-4.2,3.9-6.4,6c-0.5,0.5-1,1-1,1.8c0,0.2,0.2,0.3,0.2,0.7
		c0.2,0.5,0.3,1,0.3,1.3c0,0.8-0.7,1.1-2,1.1c-1.1,0-2-0.3-2.6-1.1c-1.3-2.1-2.3-3.1-2.3-4.1s0.7-2,2.6-4.1c1.8-2,3.9-3.7,5.7-5.5
		c0.7-0.5,1.5-0.8,1.8-2.1C193.3,83,187.2,86.9,181.9,92z M168.5,118.7c-0.2-1.3-0.2-1.8-1-1.8c-0.3,0-0.7,0-1.3,0.2
		c-1,0.2-2,0.5-2.9,0.7c-5.5,1.5-11.1,2.8-16.3,5c-5.2,2.1-9,5.7-10.3,11.2c-0.5,2-0.8,3.7-0.8,5.7c0,8.5,5.2,16,14.8,19.1
		c1.5,0.5,3.1,0.8,4.6,0.8c2.9,0,5.9-1.1,8.3-3.6c2.6-2.4,4.1-5.4,4.7-8.6c0.7-2.4,0.8-4.7,0.8-7.2c0-2.1-0.2-4.2-0.2-6.4v-4.7
		C168.8,125.7,168.7,122.1,168.5,118.7z"/>
	<path d="M221.4,103.9c7.8-7.7,15.8-15,24.4-21.3c4.1-2.8,8.1-5.2,12.7-7.2c0.8-0.3,1.8-0.5,2.8-0.8c0.3-0.2,0.7-0.2,1-0.2
		s0.8,0,1.1,0.2c2.4,0.5,5.5,4.9,5.5,7.8v0.5c-0.5,2.4-1.3,4.6-2.3,6.7c-2.1,4.7-4.4,9.3-6.2,14c-0.5,1.3-0.8,2.4-0.8,3.6v0.5
		c0.3,0.3,0.5,0.3,0.8,0.3s0.7-0.2,1-0.3c7.8-3.1,15.3-7,21.7-12.7c0.5-0.3,0.8-0.8,1.1-1.1c0.5-0.3,0.8-0.5,1.1-0.5
		c0.3,0,0.8,0.2,1.1,0.5c1.6,2.1,2.4,2.9,2.4,3.9c0,0.8-0.8,1.6-2.8,3.3c-6.5,5.4-13.8,9.3-21.7,12.4c-1.1,0.5-2,0.7-2.9,0.7
		c-1.8,0-3.1-1-4.7-2.6c-1.8-2-2.6-4.1-2.6-6.2c0-1.5,0.3-2.9,1-4.6c1.3-3.7,2.8-7.2,4.6-10.7c1-2.1,2-4.2,2.8-6.5
		c0.3-0.7,0.7-1.5,0.7-2.3V81H263c-1,0-2,0.5-2.9,1c-7.3,3.6-13.8,8.5-20,13.8c-8.5,7.3-16.4,15-24.3,22.8c-1.6,1.5-3.1,2.9-4.9,4.1
		c-0.7,0.5-1.3,0.7-1.8,0.7c-0.7,0-1.1-0.3-2-1.1c-1.6-1.8-2.4-2.6-2.4-3.7c0-1,0.5-2,1.5-3.9c1.6-3.7,3.9-7.2,6.2-10.6
		c9.1-13.7,19.1-26.7,29.3-39.4c8.8-10.9,17.6-21.7,27-31.8c1.3-1.5,2.6-2.8,4.1-4.2c1-0.8,1.5-1.3,2.1-1.3c0.5,0,1,0.5,1.8,1.5
		c1.3,1.6,2,2.3,2,3.1s-0.5,1.6-1.5,3.1l-4.9,7.8c-0.3,0.8-0.8,1.5-1,2.4c-0.3,0.8-0.7,1.1-1.1,1.1c-0.3,0-0.7-0.2-1-0.3
		c-0.7-0.3-1-1.5-1.8-1.5c-0.2,0-0.3,0-0.5,0.2c-0.8,0.3-1.3,1.1-1.8,1.8c-15.6,18.2-30.9,36.8-44.5,56.7c-0.7,0.8-1.3,1.6-1.6,2.9
		C220.1,105.3,220.8,104.5,221.4,103.9z"/>
	<path d="M307.7,107.1c-5.4,3.4-10.7,6.7-16.6,9.1c-2,0.8-3.9,1.6-6,2c-0.7,0.2-1.3,0.2-1.8,0.2c-2.1,0-3.7-0.8-5.2-2.8
		c-1.6-2-2.3-3.7-2.3-5.7c0-1.6,0.5-3.3,1.3-4.9c2.1-4.6,5-8.6,8.3-12.4c5.4-6.4,11.7-11.2,19.2-14.7c2.6-1.1,5.2-2,8.1-2h0.5
		c2.8,0,5,1.1,6.7,3.6c1.5,2.1,3.1,4.2,3.1,6.8c0,0.3-0.2,0.7-0.2,1c0.3,0.2,0.5,0.2,0.7,0.2c0.5,0,0.8-0.5,1.1-0.7
		c0.8-0.7,1.6-1.3,2.6-2c0.8-0.7,1.6-2,2.8-2c0.2,0,0.3,0.2,0.5,0.2c1.6,0.7,2.3,2.3,3.1,3.7c0.2,0.2,0.2,0.5,0.2,0.7
		c0,0.7-0.5,1.3-0.8,1.8c-1.5,2.3-3.1,4.6-4.6,6.8c-1.8,3.1-3.6,6.4-4.6,9.8c-0.2,0.7-0.3,1-0.3,1.3c0,0.8,0.5,1,1.5,1h0.7
		c2.1-0.3,4.1-1.1,5.9-2.1c5-2.8,9.9-5.5,14.8-8.8c1.6-1.1,3.1-2.4,4.6-3.9c0.5-0.5,1-0.8,1.3-0.8c0.5,0,1,0.3,1.5,1.1
		c1,1.6,1.8,2.6,1.8,3.4s-0.7,1.8-2.8,3.4c-4.6,3.7-9.8,6.5-14.8,9.4c-2.6,1.5-5.2,2.8-8,3.6c-1.3,0.5-2.6,0.7-4.1,0.7
		c-2,0-3.4-0.7-4.6-2.3c-0.3-0.5-0.7-1.1-1-1.6c-1.5-1.6-2-3.3-2-5c0-1.1,0.2-2.4,0.7-3.6c0.3-0.5,0.7-1,0.7-1.8
		c0-0.2-0.2-0.5-0.2-0.8C315.4,101.9,311.6,104.5,307.7,107.1z M282.2,112.4c0.7,0,1.1-0.2,1.8-0.3c2.8-0.8,5.5-2,8-3.3
		c7.8-3.9,15-8.8,22.1-13.8c0.7-0.3,1.1-0.8,1.1-1.5c0-0.2-0.2-0.5-0.3-0.8c-0.2-0.2-0.2-0.5-0.2-0.7c0-0.5,0.5-1,0.7-1.5
		c1-1.8,1.8-3.4,2.3-5.4c0.2-0.5,0.2-0.8,0.2-1.3c0-1.3-0.8-1.8-2.6-1.8h-0.8c-2.6,0-4.9,0.8-7.3,2c-10.9,5-18.7,13.4-24.4,23.8
		c-0.8,1.3-1.6,2.8-1.6,4.4C281.5,112.4,281.8,112.4,282.2,112.4z"/>
	<path d="M345,111.9c0-0.8,0-1.6,0.2-2.4c1.3-6.4,4.1-12.2,7.2-17.9c7.5-13.2,16-25.7,25.9-37.1c6.7-8,13.7-15.6,22-22
		c2.1-1.5,4.2-2.9,6.5-3.9c0.8-0.3,1.8-0.5,2.8-0.5c3.6,0,7,2.9,7,7c0,1.1-0.2,2.4-0.7,3.6c-1.8,5.2-4.7,9.8-8,14.2
		c-10.6,13.8-23,25.7-37.5,35.3c-1.8,1.3-3.9,2.4-6,3.3c-0.7,0.3-1.5,0.5-2.1,0.5h-0.5c-0.3-0.2-0.7-0.2-0.8-0.2c-1.3,0-2,1-2.6,2.1
		c-3.1,5.7-6,11.6-7.5,17.9c-0.3,1-0.5,2-0.5,2.9c0,0.7,0.2,1.1,0.2,1.8c0.2,2.1,0.7,2.6,2.8,2.8h1.1c2.3,0,4.6-0.5,6.8-1.1
		c9.9-3.4,19.5-7.7,28.8-12.5c5.7-3.1,11.2-6.7,16.3-10.6c1.3-1,2-1.5,2.4-1.5c0.7,0,1.3,0.7,2.4,1.8c0.2,0.3,0.5,0.7,0.8,1
		c0.5,0.7,0.8,1,0.8,1.3c0,0.5-0.3,0.8-1.1,1.5c-3.4,2.6-7,5.2-10.7,7.5c-11.2,6.8-23.1,12.4-35.5,16.6c-2.3,0.8-4.7,1.5-7,1.5h-0.8
		C350.4,124.6,345,118.9,345,111.9z M405.1,37c-4.4,3.1-8.3,6.8-12.2,10.7c-9.6,9.9-18.2,20.7-25.9,32.2c-0.8,1.1-1.5,2.4-2.3,3.7
		c2.6-1.3,4.9-2.8,7.2-4.4c9.6-7.3,18.6-15.6,26.4-24.9c4.2-4.9,8.1-10.1,10.9-16.1c0.7-1.3,1.3-2.6,1.5-4.4
		C408.4,34.5,406.7,35.7,405.1,37z"/>
	<path d="M517.1,111.2c5.5-7.5,11.1-14.8,16.8-22.1c5.7-7.5,11.7-14.8,17.7-22c10.3-11.9,20.8-23.6,32.2-34.5
		c8-7.5,16.3-14.5,25.2-20.7c5-3.7,10.4-6.8,16.1-9.4c2.3-1.1,4.6-1.8,7-2.3C632.9,0,633.5,0,634,0c3.3,0,5.5,1.5,7.5,4.6
		c1.8,2.9,3.4,6,3.4,9.4v1c-0.3,4.1-1.3,8.1-2.6,12c-2.1,6-4.7,12-7.3,17.9c-3.3,7.5-6.7,14.8-9.9,22.3
		c-5.4,12.7-10.7,25.2-14.3,38.6c-1.8,6.5-2.6,13.2-3.1,20c-0.3,2.8-0.3,5.5-0.3,8.1c0,4.2,0.2,8.3,0.8,12.4c0.3,2.3,1,4.4,1.8,6.7
		c0.8,2,2.4,3.1,4.6,3.3h1.3c2.6,0,4.7-0.8,6.8-2.4c0.8-0.7,1.8-1.5,2.6-2.1c0.5-0.3,0.8-0.3,1.1-0.3s0.8,0.2,1.1,0.7
		c0,0.2,0.2,0.3,0.3,0.5c1,2,1.6,2.8,1.6,3.6s-0.8,1.5-2.8,2.9c-2,1.6-4.4,2.6-6.7,3.4c-0.7,0.2-1.5,0.3-2.1,0.3
		c-1.1,0-2.3-0.3-3.4-0.8c-2-0.8-3.4-2.1-4.7-3.7c-3.6-5.2-5.9-10.9-6.5-17.1c-0.5-4.1-0.7-8-0.7-12c0-13.5,2.4-26.5,7.2-39.6
		c5.4-14.3,11.2-28.3,17.6-42.2c3.6-7.8,7.3-15.8,10.1-24.1c1.5-4.1,2.8-8.1,2.8-12.7V9.9c-0.2-2.6-0.7-3.1-3.3-3.4h-0.8
		c-2.4,0-4.7,0.7-7,1.5c-4.9,1.8-9.1,4.7-13.5,7.5c-8.3,5.4-16,11.6-23.3,18.2c-10.3,9.4-20,19.5-29.1,30
		C557,70.8,550.8,78,545,85.3c-7.5,9.3-14.5,18.7-21.7,28.3c-5.7,7.5-11.2,15.1-17.1,22.3c-2.8,3.4-5.7,6.7-8.6,9.8
		c-1,1-2,2-3.3,2.4c-0.5,0.2-0.8,0.3-1.3,0.3c-0.7,0-1.1-0.3-1.6-1.1c-0.8-1.3-1.6-2.8-2.3-4.2c-0.2-0.3-0.3-0.8-0.3-1.1
		c0-0.5,0.2-1.1,0.3-1.6c1-4.9,2.9-9.6,5.2-14c6.2-12.7,13.4-24.7,20.7-36.8c7-11.6,14-23,21.2-34.4c4.9-7.7,9.6-15.5,13.5-23.6
		c2.1-4.6,4.1-9.1,4.6-14.2c0-0.3,0.2-0.7,0.2-0.8v-1.3c0-2.8-1-3.7-3.9-5c-3.4-1.5-7.3-1.6-11.1-1.6h-1.6c-7.3,0-14.5,1-21.5,3.3
		c-8.6,2.6-17.3,5.4-25.2,10.1c-1.6,1-3.6,1.8-5.4,2.8c-8.8,5-16.9,11.1-23.8,18.6c-3.7,4.1-7,8.6-8.8,14c-0.8,2.4-1.3,4.7-1.3,7.2
		c0,1.5,0.2,2.8,0.5,4.2c0.7,2.4,1.8,4.2,3.6,5.7c4.6,4.1,9.6,7.3,15,10.4c3.6,2.1,7,4.6,10.3,7.3c4.6,3.7,8,8.3,10.6,13.7
		c0.3,0.7,0.7,1.5,0.8,2.3c0.2,0.3,0.2,0.5,0.2,0.8s-0.2,0.7-0.7,1l-0.3,0.2c-0.5,0-0.8-0.5-1.1-1c-1-1.3-2.1-2.6-2.6-4.2
		c-0.5-1.3-1.1-2.3-2.1-3.3c-3.6-3.7-7.7-7-12.2-9.6c-4.6-2.8-9-5.7-13.4-9c-5.4-3.7-9-9-11.6-14.8c-1.1-2.6-1.6-5.2-1.6-7.8
		c0-3.6,1-7,2.6-10.4c3.4-7,8.5-12.5,14.2-17.6c8.6-7.8,18.6-13.8,29.1-18.9c8-3.9,16.3-6.5,24.7-8.8c6.4-1.6,12.7-2.4,19.2-2.4h2.9
		c3.9,0.2,7.7,0.8,11.1,2.9c4.9,3.1,8.1,9.1,8.1,14.8c0,0.8,0,1.6-0.2,2.3c-0.7,3.6-1.6,7-3.1,10.3c-2.9,6.2-6,12.2-9.6,17.9
		c-7.3,12.2-15,24.1-22.3,36.1c-8,12.9-15.6,25.7-22.6,39.1c-1.6,3.1-3.1,6.4-4.6,9.4c-0.3,0.8-0.7,1.6-0.7,2.9
		C503.6,129.1,510.4,120.2,517.1,111.2z"/>
	<path d="M660.9,107.1c-5.4,3.4-10.7,6.7-16.6,9.1c-2,0.8-3.9,1.6-6,2c-0.7,0.2-1.3,0.2-1.8,0.2c-2.1,0-3.7-0.8-5.2-2.8
		c-1.6-2-2.3-3.7-2.3-5.7c0-1.6,0.5-3.3,1.3-4.9c2.1-4.6,5-8.6,8.3-12.4c5.4-6.4,11.7-11.2,19.2-14.7c2.6-1.1,5.2-2,8.1-2h0.5
		c2.8,0,5,1.1,6.7,3.6c1.5,2.1,3.1,4.2,3.1,6.8c0,0.3-0.2,0.7-0.2,1c0.3,0.2,0.5,0.2,0.7,0.2c0.5,0,0.8-0.5,1.1-0.7
		c0.8-0.7,1.6-1.3,2.6-2c0.8-0.7,1.6-2,2.8-2c0.2,0,0.3,0.2,0.5,0.2c1.6,0.7,2.3,2.3,3.1,3.7c0.2,0.2,0.2,0.5,0.2,0.7
		c0,0.7-0.5,1.3-0.8,1.8c-1.5,2.3-3.1,4.6-4.6,6.8c-1.8,3.1-3.6,6.4-4.6,9.8c-0.2,0.7-0.3,1-0.3,1.3c0,0.8,0.5,1,1.5,1h0.7
		c2.1-0.3,4.1-1.1,5.9-2.1c5-2.8,9.9-5.5,14.8-8.8c1.6-1.1,3.1-2.4,4.6-3.9c0.5-0.5,1-0.8,1.3-0.8c0.5,0,1,0.3,1.5,1.1
		c1,1.6,1.8,2.6,1.8,3.4s-0.7,1.8-2.8,3.4c-4.6,3.7-9.8,6.5-14.8,9.4c-2.6,1.5-5.2,2.8-8,3.6c-1.3,0.5-2.6,0.7-4.1,0.7
		c-2,0-3.4-0.7-4.6-2.3c-0.3-0.5-0.7-1.1-1-1.6c-1.5-1.6-2-3.3-2-5c0-1.1,0.2-2.4,0.7-3.6c0.3-0.5,0.7-1,0.7-1.8
		c0-0.2-0.2-0.5-0.2-0.8C668.5,101.9,664.8,104.5,660.9,107.1z M635.3,112.4c0.7,0,1.1-0.2,1.8-0.3c2.8-0.8,5.5-2,8-3.3
		c7.8-3.9,15-8.8,22.1-13.8c0.7-0.3,1.1-0.8,1.1-1.5c0-0.2-0.2-0.5-0.3-0.8c-0.2-0.2-0.2-0.5-0.2-0.7c0-0.5,0.5-1,0.7-1.5
		c1-1.8,1.8-3.4,2.3-5.4c0.2-0.5,0.2-0.8,0.2-1.3c0-1.3-0.8-1.8-2.6-1.8h-0.8c-2.6,0-4.9,0.8-7.3,2c-10.9,5-18.7,13.4-24.4,23.8
		c-0.8,1.3-1.6,2.8-1.6,4.4C634.7,112.4,635,112.4,635.3,112.4z"/>
	<path d="M727.5,94.8c-8.6,7-16.6,14.5-24.9,21.7c-2.1,2-4.2,3.7-6.7,5.2c-1,0.5-1.6,0.8-2.1,0.8c-0.8,0-1.5-0.5-2.3-1.8l-1-1.5
		c-0.7-0.7-1-1.3-1-2.1c0-0.5,0.2-1.1,0.5-1.8c0.8-1.8,1.8-3.6,2.9-5.4c7.5-11.7,15.6-23,25.1-33.2c0.7-0.8,1.5-1.6,2.3-2.4
		c0.5-0.5,1-0.7,1.3-0.7c0.5,0,0.8,0.2,1.3,0.8c0.8,1,2.3,2.1,2.3,3.4v0.3c-0.7,2.3-2.1,4.1-4.1,5.4c-0.7,0.5-1.3,0.8-1.8,1.5
		c-6.5,7.3-12.4,15.3-17.6,23.6c1.8-1.6,3.6-3.1,5.4-4.7c8.8-8,17.7-15.8,27.5-22.6c2.6-1.8,5.2-3.7,8.3-5c1-0.5,1.8-0.8,2.3-0.8
		c1,0,1.6,0.7,2.8,2.1c1.1,1.3,1.6,2.6,1.6,4.1c0,1-0.3,2-0.8,3.1c-2.4,4.9-5,9.4-7.2,14.5c-0.5,1.6-1.1,3.1-1.6,4.7
		c-0.2,0.5-0.2,0.8-0.2,1.1c0,0.5,0.3,0.8,0.8,0.8c0.3,0,0.7,0,1.1-0.2c1.6-0.3,3.1-0.7,4.6-1.1c7.5-2.6,14.7-5.9,20.8-10.7
		c0.7-0.7,1.1-0.8,1.5-0.8c0.5,0,1,0.3,1.8,1.3c1.1,1.5,1.8,2.4,1.8,3.1c0,0.8-0.8,1.5-2.6,2.8c-7.8,5.4-16.4,9.4-25.7,11.6
		c-0.7,0.2-1.1,0.2-1.6,0.2c-2.1,0-3.6-1-5.2-2.8c-1.6-2-2.3-4.1-2.3-6c0-1.6,0.3-3.3,1-4.9c1.3-3.9,3.3-7.8,5.2-11.6
		c0.3-0.5,0.7-1.1,0.7-2.3C736.6,87.8,731.9,91.2,727.5,94.8z"/>
	<path d="M805.2,123.4c0.2-0.2,0.5-0.2,0.8-0.2h0.2c1.6,0.7,2.4,2,3.3,3.3c0.2,0.3,0.3,0.7,0.3,0.8c0,0.7-0.5,1.1-1,1.8
		c-1,1.1-2.1,2.3-3.6,3.1c-0.7,0.3-1.1,0.5-1.5,0.5c-0.7,0-1.1-0.5-2-1.1c-2.6-2.6-3.6-5.5-3.6-8.6c0-1,0-2,0.2-2.9
		c1-5.5,2.3-10.9,4.4-16.1c0.2-0.5,0.3-1,0.3-1.5s-0.3-0.8-1.1-1.3c-0.8-0.3-1.3-1.5-1.8-2.1c-0.7-0.8-1-1.1-1.5-1.1
		c-0.3,0-0.8,0.3-1.5,1c-3.3,3.1-6.7,6-10.1,9c-4.1,3.4-8.5,6.7-13.4,9.3c-2,1.1-4.1,2.1-6.2,2.8c-0.7,0.2-1.3,0.2-2,0.2
		c-2,0-3.6-0.7-5.2-2.4c-2-2.1-2.9-4.4-2.9-6.7c0-1.8,0.7-3.7,1.6-5.7c2.1-3.9,4.7-7.3,7.8-10.4c4.6-4.7,9.6-8.6,15.1-11.7
		c3.1-1.6,6.2-2.9,9.4-3.4c0.7-0.2,1.3-0.2,2-0.2c2.9,0,5.4,1,7.3,3.7c0.7,1,1,1.5,1.5,1.5s0.8-0.5,1.6-1.1
		c8.3-8.3,16.4-16.6,24.3-25.4c3.9-4.4,6.8-9.4,10.6-14.2c4.2-5.5,8.5-11.1,13.7-16c1.3-1.3,2.1-2.1,2.9-2.1s1.5,0.8,2.6,2.4
		c0.8,1,1.1,1.6,1.1,2.3c0,0.5-0.3,1-0.8,2c-2.9,4.9-6.5,9-10.3,13.2c-4.2,4.9-8.8,9.8-13,14.8c-3.7,4.2-6.5,9.1-9.6,13.8
		c-5.7,9.1-10.7,18.4-15.3,28c-2.9,6.2-5,12.5-6.2,19.2c-0.2,0.5-0.2,1.1-0.2,1.6c0,0.3,0,0.7,0.2,1.1
		C804.7,124.4,804.8,123.7,805.2,123.4z M785,88.9c-6.5,3.6-12,8.5-16.8,14.2c-2.1,2.6-3.9,5.2-5,8.3c-0.2,0.5-0.7,1.1-0.7,1.8
		c0,0.3,0.2,0.7,0.5,1c0.2,0.2,0.5,0.2,0.7,0.2c0.7,0,1.3-0.3,1.8-0.5c3.7-1.1,7-3.3,10.3-5.4c8.1-5.9,15.5-12.7,22.6-19.7
		c0.5-0.3,1.3-1,1.3-1.6c0-0.2,0-0.3-0.2-0.5c-0.3-1.1-1.5-1.1-2.3-1.3h-1.5C791.8,85.5,788.2,86.9,785,88.9z M811.2,86l-0.3-0.3
		c-1.6,1.6-3.4,3.3-5,4.9c-0.3,0.5-0.7,1.1-0.7,1.8v0.8c0,2-0.5,3.9-0.5,5.9C806.8,94.8,809.1,90.4,811.2,86z"/>
	<path d="M885.8,101.8c-3.4,9.3-9.1,17.1-17.7,22.3c-3.3,2.1-7,3.6-10.9,3.6H856c-2.3-0.2-4.1-0.8-5.5-2.3c-3.4-3.6-5.5-7.5-5.5-12
		c0-1.6,0.3-3.3,0.8-5c0.3-1.3,0.8-2.4,1-4.2c-2.4,2.3-4.7,4.2-6.8,6.4c-5.4,4.9-10.4,9.9-16.1,14.3c-0.2,0.2-0.2,0.3-0.3,0.3
		c-2.3,1.6-3.6,2.4-4.6,2.4c-1.3,0-2.1-1.5-3.7-3.9c-0.3-0.7-0.5-1.1-0.5-1.8c0-0.3,0-0.8,0.2-1.3c0.7-1.8,1.5-3.6,2.4-5.2
		c4.6-8,9.9-15.3,15.6-22.6c2-2.6,4.1-5.2,5.7-8.1c0.3-0.8,0.7-1.5,0.7-2.3c0-0.5-0.2-1-0.5-1.5c-0.2-0.3-0.3-0.7-0.3-1
		s0.2-0.7,0.5-0.8c0.2-0.2,0.5-0.2,0.7-0.2c0.5,0,0.8,0.2,1.1,0.5c1.3,1.5,2.6,2.9,3.4,4.7c0.2,0.5,0.2,0.8,0.2,1.3
		c0,0.8-0.2,1.5-0.5,2.3c-0.8,2.1-2.3,4.1-3.6,5.9c-3.6,4.9-7.3,9.8-10.9,14.7c-1.6,2.1-3.1,4.6-4.2,7.2c3.7-3.4,7.5-7,11.1-10.4
		c4.6-4.2,9.1-8.3,13.7-12.4c0.5-0.5,1.1-1,1.6-1.5c0.8-0.7,1.3-0.8,1.8-0.8c0.7,0,1.3,0.3,2,1.3c0.3,0.3,0.5,0.8,0.8,1.1
		c0.8,0.8,1.1,1.6,1.1,2.6c0,0.7-0.2,1.5-0.7,2.3l-2,3.9c-2,4.6-3.9,9.1-4.4,14c-0.2,0.7-0.2,1.1-0.2,1.6c0,3.3,1.5,5,4.4,5
		c0.5,0,0.8-0.2,1.3-0.2c2.1-0.3,4.4-1,6.5-2c8.3-4.1,13.7-10.9,17.6-19.1c2-4.1,2.8-8.5,3.1-12.9v-0.7c0-1.3-0.3-2.4-1-3.4
		c-0.8-1.1-1.3-2.3-1.3-3.7c0-0.8,0.2-1.5,1-2c0.3-0.2,0.5-0.2,0.7-0.2c0.7,0,1.1,0.3,1.5,0.8c1.5,2,2.9,3.7,3.6,6.2
		c0.3,1.1,0.8,2.1,1.8,2.8c3.6,2.3,7.2,4.1,11.2,5.2c1,0.2,2,0.3,2.9,0.3c0.8,0,1.5,0,2.3-0.3c0.5-0.2,0.8-0.2,1.1-0.2
		c1,0,1.8,0.5,2.4,1.6c0.8,1.3,1.3,2.1,1.3,2.8c0,1-1.1,1.5-3.4,1.8c-0.7,0.2-1.3,0.2-2,0.2c-2.6,0-5-1-7.3-2
		c-3.3-1.3-6.4-3.3-9.6-5.4C887.4,95.6,887.1,98.8,885.8,101.8z"/>
	<path d="M930.2,107.1c-5.4,3.4-10.7,6.7-16.6,9.1c-2,0.8-3.9,1.6-6,2c-0.7,0.2-1.3,0.2-1.8,0.2c-2.1,0-3.7-0.8-5.2-2.8
		c-1.6-2-2.3-3.7-2.3-5.7c0-1.6,0.5-3.3,1.3-4.9c2.1-4.6,5-8.6,8.3-12.4c5.4-6.4,11.7-11.2,19.2-14.7c2.6-1.1,5.2-2,8.1-2h0.5
		c2.8,0,5,1.1,6.7,3.6c1.5,2.1,3.1,4.2,3.1,6.8c0,0.3-0.2,0.7-0.2,1c0.3,0.2,0.5,0.2,0.7,0.2c0.5,0,0.8-0.5,1.1-0.7
		c0.8-0.7,1.6-1.3,2.6-2c0.8-0.7,1.6-2,2.8-2c0.2,0,0.3,0.2,0.5,0.2c1.6,0.7,2.3,2.3,3.1,3.7c0.2,0.2,0.2,0.5,0.2,0.7
		c0,0.7-0.5,1.3-0.8,1.8c-1.5,2.3-3.1,4.6-4.6,6.8c-1.8,3.1-3.6,6.4-4.6,9.8c-0.2,0.7-0.3,1-0.3,1.3c0,0.8,0.5,1,1.5,1h0.7
		c2.1-0.3,4.1-1.1,5.9-2.1c5-2.8,9.9-5.5,14.8-8.8c1.6-1.1,3.1-2.4,4.6-3.9c0.5-0.5,1-0.8,1.3-0.8c0.5,0,1,0.3,1.5,1.1
		c1,1.6,1.8,2.6,1.8,3.4s-0.7,1.8-2.8,3.4c-4.6,3.7-9.8,6.5-14.8,9.4c-2.6,1.5-5.2,2.8-8,3.6c-1.3,0.5-2.6,0.7-4.1,0.7
		c-2,0-3.4-0.7-4.6-2.3c-0.3-0.5-0.7-1.1-1-1.6c-1.5-1.6-2-3.3-2-5c0-1.1,0.2-2.4,0.7-3.6c0.3-0.5,0.7-1,0.7-1.8
		c0-0.2-0.2-0.5-0.2-0.8C937.9,101.9,934.1,104.5,930.2,107.1z M904.6,112.4c0.7,0,1.1-0.2,1.8-0.3c2.8-0.8,5.5-2,8-3.3
		c7.8-3.9,15-8.8,22.1-13.8c0.7-0.3,1.1-0.8,1.1-1.5c0-0.2-0.2-0.5-0.3-0.8c-0.2-0.2-0.2-0.5-0.2-0.7c0-0.5,0.5-1,0.7-1.5
		c1-1.8,1.8-3.4,2.3-5.4c0.2-0.5,0.2-0.8,0.2-1.3c0-1.3-0.8-1.8-2.6-1.8h-0.8c-2.6,0-4.9,0.8-7.3,2c-10.9,5-18.7,13.4-24.4,23.8
		c-0.8,1.3-1.6,2.8-1.6,4.4C904,112.4,904.3,112.4,904.6,112.4z"/>
	<path d="M996.8,94.8c-8.6,7-16.6,14.5-24.9,21.7c-2.1,2-4.2,3.7-6.7,5.2c-1,0.5-1.6,0.8-2.1,0.8c-0.8,0-1.5-0.5-2.3-1.8l-1-1.5
		c-0.7-0.7-1-1.3-1-2.1c0-0.5,0.2-1.1,0.5-1.8c0.8-1.8,1.8-3.6,2.9-5.4c7.5-11.7,15.6-23,25.1-33.2c0.7-0.8,1.5-1.6,2.3-2.4
		c0.5-0.5,1-0.7,1.3-0.7c0.5,0,0.8,0.2,1.3,0.8c0.8,1,2.3,2.1,2.3,3.4v0.3c-0.7,2.3-2.1,4.1-4.1,5.4c-0.7,0.5-1.3,0.8-1.8,1.5
		c-6.5,7.3-12.4,15.3-17.6,23.6c1.8-1.6,3.6-3.1,5.4-4.7c8.8-8,17.7-15.8,27.5-22.6c2.6-1.8,5.2-3.7,8.3-5c1-0.5,1.8-0.8,2.3-0.8
		c1,0,1.6,0.7,2.8,2.1c1.1,1.3,1.6,2.6,1.6,4.1c0,1-0.3,2-0.8,3.1c-2.4,4.9-5,9.4-7.2,14.5c-0.5,1.6-1.1,3.1-1.6,4.7
		c-0.2,0.5-0.2,0.8-0.2,1.1c0,0.5,0.3,0.8,0.8,0.8c0.3,0,0.7,0,1.1-0.2c1.6-0.3,3.1-0.7,4.6-1.1c7.5-2.6,14.7-5.9,20.8-10.7
		c0.7-0.7,1.1-0.8,1.5-0.8c0.5,0,1,0.3,1.8,1.3c1.1,1.5,1.8,2.4,1.8,3.1c0,0.8-0.8,1.5-2.6,2.8c-7.8,5.4-16.4,9.4-25.7,11.6
		c-0.7,0.2-1.1,0.2-1.6,0.2c-2.1,0-3.6-1-5.2-2.8c-1.6-2-2.3-4.1-2.3-6c0-1.6,0.3-3.3,1-4.9c1.3-3.9,3.3-7.8,5.2-11.6
		c0.3-0.5,0.7-1.1,0.7-2.3C1005.9,87.8,1001.2,91.2,996.8,94.8z"/>
	<path d="M1030.2,118.9c-2-2.1-2.9-4.2-2.9-6.5c0-1.6,0.5-3.4,1.5-5.2c2-3.9,4.2-7.7,6.7-11.2c4.1-6,8.5-11.7,13.5-16.9
		c1.1-1.3,1.8-2,2.4-2c0.7,0,1.1,0.7,2.3,2.1c1,1.3,1.3,1.8,1.3,2.4s-0.3,1.3-1.1,2.6c-0.7,1-1.1,2-1.8,2.8c-0.8,1-1.3,2.3-2.8,2.3
		h-0.5c-0.5,0-0.8,0.7-1.1,1c-5.2,6.5-10.3,13-13.8,20.5c-0.3,0.8-1.1,1.8-1.1,2.6c0,0.3,0.2,0.5,0.3,0.8c0.2,0.3,0.5,0.3,0.8,0.3
		c0.8,0,1.8-0.7,2.4-1c12.2-5,23.6-11.4,34.2-19.2c0.5-0.3,0.8-0.7,1.3-1s0.8-0.5,1.1-0.5c0.5,0,0.8,0.3,1.3,0.8
		c1.5,2,2.1,2.9,2.1,3.6c0,0.8-0.8,1.5-2.8,2.9c-10.7,8-22.5,14.3-34.8,19.4c-1.5,0.7-3.1,1.1-4.7,1.1h-0.3
		C1032.1,120.7,1031.2,119.8,1030.2,118.9z M1069.3,65.6c0.3,0.5,0.8,1.1,0.8,1.8c0,0.2,0,0.5-0.3,0.8c-0.5,0.5-1.6,0.8-2.4,0.8
		c-0.3,0-0.7,0-1-0.2c-2.4-1.3-4.2-4.6-4.2-7.5c0-0.5,0-1,0.2-1.3c0.3-1.3,0.8-2.6,1.6-3.9c2.3-3.9,5.5-7.2,9.3-9.9
		c1-0.8,1.6-1.1,2.3-1.1c0.8,0,1.5,0.7,2.4,1.8c1.5,1.8,2.1,2.8,2.1,3.7c0,0.8-0.5,1.8-1.8,3.4c-2.9,3.7-6.2,7.2-10.3,9.8
		C1068.1,64.5,1068.9,65,1069.3,65.6z"/>
</g>
<text transform="matrix(1 0 0 1 -1999.4336 -1584.5137)" style="font-family:'Sandlera'; font-size:600px;">Kushal Nandwani</text>
</svg>
