<?xml version="1.0" encoding="utf-8"?>
<!-- Generator: Adobe Illustrator 27.6.1, SVG Export Plug-In . SVG Version: 6.00 Build 0)  -->
<svg version="1.1" id="Layer_1" xmlns="http://www.w3.org/2000/svg" xmlns:xlink="http://www.w3.org/1999/xlink" x="0px" y="0px"
	 viewBox="0 0 260 260" style="enable-background:new 0 0 260 260;" xml:space="preserve">
<style type="text/css">
	.st0{fill-rule:evenodd;clip-rule:evenodd;fill:#FFFFFF;}
</style>
<g>
	<g>
		<path class="st0" d="M200.7,128.7c2.5,2.4,2.5,6.4,0.1,8.9c0,0,0,0-0.1,0.1l-63,63c-2.5,2.5-6.5,2.5-9,0c-2.5-2.5-2.5-6.5,0-9
			l63-63C194.1,126.2,198.1,126.2,200.7,128.7C200.6,128.6,200.6,128.6,200.7,128.7L200.7,128.7z M188.1,59.3
			c2.5,2.4,2.5,6.4,0.1,8.9c0,0,0,0-0.1,0.1L68.3,188.1c-2.5,2.5-6.5,2.5-9,0c-2.5-2.5-2.5-6.5,0-9L179.1,59.3
			C181.5,56.9,185.5,56.8,188.1,59.3C188,59.3,188,59.3,188.1,59.3L188.1,59.3z"/>
	</g>
</g>
</svg>
